<mxfile host="app.diagrams.net" modified="2023-07-13T22:18:48.577Z" agent="Mozilla/5.0 (Windows NT 10.0; Win64; x64) AppleWebKit/537.36 (KHTML, like Gecko) Chrome/114.0.0.0 Safari/537.36" etag="0YK_9RKiZKD-QnMlSDfO" version="21.6.2" type="device">
  <diagram id="C5RBs43oDa-KdzZeNtuy" name="Page-1">
    <mxGraphModel dx="966" dy="668" grid="1" gridSize="10" guides="1" tooltips="1" connect="1" arrows="1" fold="1" page="1" pageScale="1" pageWidth="827" pageHeight="1169" math="0" shadow="0">
      <root>
        <mxCell id="WIyWlLk6GJQsqaUBKTNV-0" />
        <mxCell id="WIyWlLk6GJQsqaUBKTNV-1" parent="WIyWlLk6GJQsqaUBKTNV-0" />
        <mxCell id="WIyWlLk6GJQsqaUBKTNV-2" value="" style="rounded=0;html=1;jettySize=auto;orthogonalLoop=1;fontSize=11;endArrow=block;endFill=0;endSize=8;strokeWidth=1;shadow=0;labelBackgroundColor=none;edgeStyle=orthogonalEdgeStyle;" parent="WIyWlLk6GJQsqaUBKTNV-1" edge="1">
          <mxGeometry relative="1" as="geometry">
            <mxPoint x="70" y="120" as="sourcePoint" />
            <mxPoint x="70" y="150" as="targetPoint" />
          </mxGeometry>
        </mxCell>
        <mxCell id="WIyWlLk6GJQsqaUBKTNV-4" value="No" style="rounded=0;html=1;jettySize=auto;orthogonalLoop=1;fontSize=11;endArrow=block;endFill=0;endSize=8;strokeWidth=1;shadow=0;labelBackgroundColor=none;edgeStyle=orthogonalEdgeStyle;exitX=0.5;exitY=1;exitDx=0;exitDy=0;entryX=0.5;entryY=0;entryDx=0;entryDy=0;" parent="WIyWlLk6GJQsqaUBKTNV-1" source="WIyWlLk6GJQsqaUBKTNV-6" target="kgnpg1wfMWJ6gp_dg6EU-1" edge="1">
          <mxGeometry y="20" relative="1" as="geometry">
            <mxPoint as="offset" />
            <mxPoint x="72.5" y="315" as="sourcePoint" />
            <mxPoint x="70" y="340" as="targetPoint" />
          </mxGeometry>
        </mxCell>
        <mxCell id="WIyWlLk6GJQsqaUBKTNV-5" value="Yes" style="edgeStyle=orthogonalEdgeStyle;rounded=0;html=1;jettySize=auto;orthogonalLoop=1;fontSize=11;endArrow=block;endFill=0;endSize=8;strokeWidth=1;shadow=0;labelBackgroundColor=none;" parent="WIyWlLk6GJQsqaUBKTNV-1" target="WIyWlLk6GJQsqaUBKTNV-7" edge="1">
          <mxGeometry y="10" relative="1" as="geometry">
            <mxPoint as="offset" />
            <mxPoint x="120" y="270" as="sourcePoint" />
            <Array as="points">
              <mxPoint x="150" y="270" />
              <mxPoint x="150" y="270" />
            </Array>
          </mxGeometry>
        </mxCell>
        <mxCell id="WIyWlLk6GJQsqaUBKTNV-6" value="index &amp;lt;= height" style="rhombus;whiteSpace=wrap;html=1;shadow=0;fontFamily=Helvetica;fontSize=12;align=center;strokeWidth=1;spacing=6;spacingTop=-4;" parent="WIyWlLk6GJQsqaUBKTNV-1" vertex="1">
          <mxGeometry x="10" y="230" width="120" height="80" as="geometry" />
        </mxCell>
        <mxCell id="WIyWlLk6GJQsqaUBKTNV-7" value="topping 사이에 body를 끼워 출력(drawBody)" style="rounded=1;whiteSpace=wrap;html=1;fontSize=12;glass=0;strokeWidth=1;shadow=0;" parent="WIyWlLk6GJQsqaUBKTNV-1" vertex="1">
          <mxGeometry x="153.75" y="235" width="157.5" height="70" as="geometry" />
        </mxCell>
        <mxCell id="kgnpg1wfMWJ6gp_dg6EU-0" value="시작" style="ellipse;whiteSpace=wrap;html=1;" parent="WIyWlLk6GJQsqaUBKTNV-1" vertex="1">
          <mxGeometry x="27.5" y="60" width="85" height="60" as="geometry" />
        </mxCell>
        <mxCell id="kgnpg1wfMWJ6gp_dg6EU-1" value="끝" style="ellipse;whiteSpace=wrap;html=1;" parent="WIyWlLk6GJQsqaUBKTNV-1" vertex="1">
          <mxGeometry x="22.5" y="345" width="95" height="60" as="geometry" />
        </mxCell>
        <mxCell id="kgnpg1wfMWJ6gp_dg6EU-2" value="&lt;span style=&quot;font-size: 15px;&quot;&gt;callDrawBody&lt;/span&gt;" style="text;strokeColor=none;fillColor=none;align=left;verticalAlign=middle;spacingLeft=4;spacingRight=4;overflow=hidden;points=[[0,0.5],[1,0.5]];portConstraint=eastwest;rotatable=0;whiteSpace=wrap;html=1;" parent="WIyWlLk6GJQsqaUBKTNV-1" vertex="1">
          <mxGeometry x="22.5" y="20" width="107.5" height="30" as="geometry" />
        </mxCell>
        <mxCell id="kgnpg1wfMWJ6gp_dg6EU-5" value="" style="endArrow=none;rounded=0;endFill=0;entryX=1;entryY=0.5;entryDx=0;entryDy=0;html=1;exitX=0.5;exitY=0;exitDx=0;exitDy=0;" parent="WIyWlLk6GJQsqaUBKTNV-1" source="WIyWlLk6GJQsqaUBKTNV-7" target="kgnpg1wfMWJ6gp_dg6EU-8" edge="1">
          <mxGeometry width="50" height="50" relative="1" as="geometry">
            <mxPoint x="232.5" y="250" as="sourcePoint" />
            <mxPoint x="72.5" y="200" as="targetPoint" />
            <Array as="points">
              <mxPoint x="233" y="175" />
            </Array>
          </mxGeometry>
        </mxCell>
        <mxCell id="kgnpg1wfMWJ6gp_dg6EU-12" value="index 증가" style="edgeLabel;html=1;align=center;verticalAlign=middle;resizable=0;points=[];" parent="kgnpg1wfMWJ6gp_dg6EU-5" vertex="1" connectable="0">
          <mxGeometry x="0.1475" y="2" relative="1" as="geometry">
            <mxPoint x="7" y="-17" as="offset" />
          </mxGeometry>
        </mxCell>
        <mxCell id="kgnpg1wfMWJ6gp_dg6EU-8" value="index = 1" style="rounded=1;whiteSpace=wrap;html=1;" parent="WIyWlLk6GJQsqaUBKTNV-1" vertex="1">
          <mxGeometry x="15" y="150" width="110" height="50" as="geometry" />
        </mxCell>
        <mxCell id="kgnpg1wfMWJ6gp_dg6EU-9" value="" style="rounded=0;html=1;jettySize=auto;orthogonalLoop=1;fontSize=11;endArrow=block;endFill=0;endSize=8;strokeWidth=1;shadow=0;labelBackgroundColor=none;edgeStyle=orthogonalEdgeStyle;entryX=0.5;entryY=0;entryDx=0;entryDy=0;" parent="WIyWlLk6GJQsqaUBKTNV-1" target="WIyWlLk6GJQsqaUBKTNV-6" edge="1">
          <mxGeometry relative="1" as="geometry">
            <mxPoint x="69.5" y="200" as="sourcePoint" />
            <mxPoint x="69.5" y="230" as="targetPoint" />
          </mxGeometry>
        </mxCell>
        <mxCell id="kgnpg1wfMWJ6gp_dg6EU-30" value="&lt;font style=&quot;font-size: 15px;&quot;&gt;drawBar&lt;/font&gt;" style="text;strokeColor=none;fillColor=none;align=left;verticalAlign=middle;spacingLeft=4;spacingRight=4;overflow=hidden;points=[[0,0.5],[1,0.5]];portConstraint=eastwest;rotatable=0;whiteSpace=wrap;html=1;" parent="WIyWlLk6GJQsqaUBKTNV-1" vertex="1">
          <mxGeometry x="379" y="20" width="70" height="30" as="geometry" />
        </mxCell>
        <mxCell id="8g1LNyXFj_cM1cs8vt9g-8" value="" style="rounded=0;html=1;jettySize=auto;orthogonalLoop=1;fontSize=11;endArrow=block;endFill=0;endSize=8;strokeWidth=1;shadow=0;labelBackgroundColor=none;edgeStyle=orthogonalEdgeStyle;" edge="1" parent="WIyWlLk6GJQsqaUBKTNV-1">
          <mxGeometry relative="1" as="geometry">
            <mxPoint x="410" y="120" as="sourcePoint" />
            <mxPoint x="410" y="150" as="targetPoint" />
          </mxGeometry>
        </mxCell>
        <mxCell id="8g1LNyXFj_cM1cs8vt9g-9" value="No" style="rounded=0;html=1;jettySize=auto;orthogonalLoop=1;fontSize=11;endArrow=block;endFill=0;endSize=8;strokeWidth=1;shadow=0;labelBackgroundColor=none;edgeStyle=orthogonalEdgeStyle;exitX=0.5;exitY=1;exitDx=0;exitDy=0;entryX=0.5;entryY=0;entryDx=0;entryDy=0;" edge="1" parent="WIyWlLk6GJQsqaUBKTNV-1" source="8g1LNyXFj_cM1cs8vt9g-11" target="8g1LNyXFj_cM1cs8vt9g-14">
          <mxGeometry y="20" relative="1" as="geometry">
            <mxPoint as="offset" />
            <mxPoint x="412.5" y="315" as="sourcePoint" />
            <mxPoint x="410" y="340" as="targetPoint" />
          </mxGeometry>
        </mxCell>
        <mxCell id="8g1LNyXFj_cM1cs8vt9g-10" value="Yes" style="edgeStyle=orthogonalEdgeStyle;rounded=0;html=1;jettySize=auto;orthogonalLoop=1;fontSize=11;endArrow=block;endFill=0;endSize=8;strokeWidth=1;shadow=0;labelBackgroundColor=none;" edge="1" parent="WIyWlLk6GJQsqaUBKTNV-1" target="8g1LNyXFj_cM1cs8vt9g-12">
          <mxGeometry y="10" relative="1" as="geometry">
            <mxPoint as="offset" />
            <mxPoint x="460" y="270" as="sourcePoint" />
            <Array as="points">
              <mxPoint x="490" y="270" />
              <mxPoint x="490" y="270" />
            </Array>
          </mxGeometry>
        </mxCell>
        <mxCell id="8g1LNyXFj_cM1cs8vt9g-11" value="index &amp;lt;= height" style="rhombus;whiteSpace=wrap;html=1;shadow=0;fontFamily=Helvetica;fontSize=12;align=center;strokeWidth=1;spacing=6;spacingTop=-4;" vertex="1" parent="WIyWlLk6GJQsqaUBKTNV-1">
          <mxGeometry x="350" y="230" width="120" height="80" as="geometry" />
        </mxCell>
        <mxCell id="8g1LNyXFj_cM1cs8vt9g-12" value="String &quot; | | &quot; 출력" style="rounded=1;whiteSpace=wrap;html=1;fontSize=12;glass=0;strokeWidth=1;shadow=0;" vertex="1" parent="WIyWlLk6GJQsqaUBKTNV-1">
          <mxGeometry x="493.75" y="235" width="157.5" height="70" as="geometry" />
        </mxCell>
        <mxCell id="8g1LNyXFj_cM1cs8vt9g-13" value="시작" style="ellipse;whiteSpace=wrap;html=1;" vertex="1" parent="WIyWlLk6GJQsqaUBKTNV-1">
          <mxGeometry x="367.5" y="60" width="85" height="60" as="geometry" />
        </mxCell>
        <mxCell id="8g1LNyXFj_cM1cs8vt9g-14" value="끝" style="ellipse;whiteSpace=wrap;html=1;" vertex="1" parent="WIyWlLk6GJQsqaUBKTNV-1">
          <mxGeometry x="362.5" y="345" width="95" height="60" as="geometry" />
        </mxCell>
        <mxCell id="8g1LNyXFj_cM1cs8vt9g-15" value="" style="endArrow=none;rounded=0;endFill=0;entryX=1;entryY=0.5;entryDx=0;entryDy=0;html=1;exitX=0.5;exitY=0;exitDx=0;exitDy=0;" edge="1" parent="WIyWlLk6GJQsqaUBKTNV-1" source="8g1LNyXFj_cM1cs8vt9g-12" target="8g1LNyXFj_cM1cs8vt9g-17">
          <mxGeometry width="50" height="50" relative="1" as="geometry">
            <mxPoint x="572.5" y="250" as="sourcePoint" />
            <mxPoint x="412.5" y="200" as="targetPoint" />
            <Array as="points">
              <mxPoint x="573" y="175" />
            </Array>
          </mxGeometry>
        </mxCell>
        <mxCell id="8g1LNyXFj_cM1cs8vt9g-16" value="index 증가" style="edgeLabel;html=1;align=center;verticalAlign=middle;resizable=0;points=[];" vertex="1" connectable="0" parent="8g1LNyXFj_cM1cs8vt9g-15">
          <mxGeometry x="0.1475" y="2" relative="1" as="geometry">
            <mxPoint x="7" y="-17" as="offset" />
          </mxGeometry>
        </mxCell>
        <mxCell id="8g1LNyXFj_cM1cs8vt9g-17" value="index = 1" style="rounded=1;whiteSpace=wrap;html=1;" vertex="1" parent="WIyWlLk6GJQsqaUBKTNV-1">
          <mxGeometry x="355" y="150" width="110" height="50" as="geometry" />
        </mxCell>
        <mxCell id="8g1LNyXFj_cM1cs8vt9g-18" value="" style="rounded=0;html=1;jettySize=auto;orthogonalLoop=1;fontSize=11;endArrow=block;endFill=0;endSize=8;strokeWidth=1;shadow=0;labelBackgroundColor=none;edgeStyle=orthogonalEdgeStyle;entryX=0.5;entryY=0;entryDx=0;entryDy=0;" edge="1" parent="WIyWlLk6GJQsqaUBKTNV-1" target="8g1LNyXFj_cM1cs8vt9g-11">
          <mxGeometry relative="1" as="geometry">
            <mxPoint x="409.5" y="200" as="sourcePoint" />
            <mxPoint x="409.5" y="230" as="targetPoint" />
          </mxGeometry>
        </mxCell>
      </root>
    </mxGraphModel>
  </diagram>
</mxfile>
